Coordinates
version=1
nRows=29
nColumns=24
inDegrees=yes

Units are S.I. units (second, meters, Newtons, ...)
Angles are in degrees.

endheader
time	pelvis_tilt	pelvis_list	pelvis_rotation	pelvis_tx	pelvis_ty	pelvis_tz	hip_flexion_r	hip_adduction_r	hip_rotation_r	knee_angle_r	ankle_angle_r	subtalar_angle_r	mtp_angle_r	hip_flexion_l	hip_adduction_l	hip_rotation_l	knee_angle_l	ankle_angle_l	subtalar_angle_l	mtp_angle_l	lumbar_extension	lumbar_bending	lumbar_rotation
      4.33500000	     -8.69629449	     -8.81715962	      4.93683975	     -1.47470614	     -0.02034950	      0.43564911	     18.82763303	     10.62504768	     -6.19938409	    -15.29900233	     -4.13472356	     -6.14653201	      3.92619422	     19.57866172	     -8.42226879	      6.18952499	    -63.17532171	    -26.67106265	    -12.24494253	     22.25291097	      9.05916000	      7.25248486	     -6.86939931
      4.34000000	     -8.59626182	     -8.59018399	      4.88649800	     -1.46887528	     -0.01961593	      0.43648926	     18.17478968	     10.57463002	     -5.84809380	    -15.12019731	     -3.91491977	     -6.36978992	      3.77820218	     20.27126618	     -8.10361363	      6.14809320	    -63.71839291	    -26.16426974	    -13.39263601	     21.54496533	      8.91690421	      6.97938099	     -6.55554097
      4.34500000	     -8.52297172	     -8.30533774	      4.82046478	     -1.46307382	     -0.01886712	      0.43734504	     17.54357040	     10.46130585	     -5.48959289	    -14.93731772	     -3.68435729	     -6.60269148	      3.65074261	     20.95830948	     -7.72963645	      6.07845465	    -64.13450039	    -25.56680630	    -14.26084284	     21.05752450	      8.79863083	      6.64741531	     -6.23024622
      4.35000000	     -8.47234887	     -7.99648111	      4.73818065	     -1.45733786	     -0.01809905	      0.43819265	     16.93753375	     10.31483065	     -5.13049635	    -14.75130386	     -3.47903694	     -6.79336082	      3.54935521	     21.64335471	     -7.33301559	      5.98963655	    -64.42958848	    -24.88912510	    -14.91155723	     20.75799685	      8.69480007	      6.29073930	     -5.88705864
      4.35500000	     -8.44111800	     -7.64461446	      4.58455488	     -1.45160586	     -0.01726878	      0.43905740	     16.33498842	     10.13147834	     -4.69032962	    -14.54781435	     -3.33640238	     -6.96249620	      3.43003938	     22.29348690	     -6.91408405	      5.80915541	    -64.59225294	    -24.13637128	    -15.38183123	     20.46891883	      8.60485387	      5.91226076	     -5.44064508
      4.36000000	     -8.43430210	     -7.24234667	      4.44827329	     -1.44594492	     -0.01645589	      0.43991528	     15.76815722	      9.88003854	     -4.28594596	    -14.35674917	     -3.14900814	     -7.12813006	      3.35238268	     22.95213832	     -6.44071174	      5.62639575	    -64.63886756	    -23.32790183	    -15.62252969	     20.38187467	      8.53382036	      5.47367312	     -5.03928710
      4.36500000	     -8.45102487	     -6.80309405	      4.27129034	     -1.44028020	     -0.01562723	      0.44080873	     15.21098715	      9.59074949	     -3.83339105	    -14.14302335	     -2.96196845	     -7.26150819	      3.28784369	     23.59356093	     -5.94957343	      5.38869306	    -64.55903863	    -22.47151964	    -15.66189640	     20.40046497	      8.48794107	      5.00119795	     -4.59678380
      4.37000000	     -8.48472895	     -6.32760692	      4.07854738	     -1.43468765	     -0.01480032	      0.44169388	     14.68762127	      9.25349204	     -3.39647566	    -13.95024060	     -2.78049914	     -7.37085674	      3.24205906	     24.22291091	     -5.42527292	      5.12800593	    -64.36160734	    -21.58049961	    -15.55623507	     20.51877363	      8.44967096	      4.50022654	     -4.14384388
      4.37500000	     -8.53114270	     -5.83381675	      3.87612943	     -1.42915851	     -0.01399339	      0.44255655	     14.19091617	      8.88537891	     -2.97492726	    -13.77042637	     -2.59884156	     -7.45069934	      3.21362747	     24.84189784	     -4.88570669	      4.85248056	    -64.05683674	    -20.67941065	    -15.35113813	     20.70150726	      8.42019923	      3.98644071	     -3.68962989
      4.38000000	     -8.58565710	     -5.34926398	      3.63732771	     -1.42355928	     -0.01321216	      0.44347433	     13.67399609	      8.53091405	     -2.51533427	    -13.53440161	     -2.40990733	     -7.49305324	      3.18601543	     25.43855485	     -4.38807120	      4.53616763	    -63.65486937	    -19.75199338	    -14.97256114	     20.92007745	      8.41362828	      3.48772318	     -3.19551799
      4.38500000	     -8.64471279	     -4.86354014	      3.38971645	     -1.41803590	     -0.01247598	      0.44436200	     13.18417380	      8.16381774	     -2.09321285	    -13.32198604	     -2.22409938	     -7.51162015	      3.17142098	     26.02051678	     -3.88958565	      4.21889193	    -63.15912241	    -18.83705562	    -14.57468097	     21.13809227	      8.40490961	      2.99547218	     -2.71373930
      4.39000000	     -8.69940850	     -4.40232681	      3.13085511	     -1.41251831	     -0.01179610	      0.44522029	     12.69096577	      7.81453553	     -1.67890840	    -13.09984957	     -2.03595943	     -7.50395733	      3.15836915	     26.58259701	     -3.43136032	      3.88656871	    -62.58437843	    -17.93491429	    -14.13940339	     21.34265357	      8.39640557	      2.53715937	     -2.22437556
      4.39500000	     -8.74937093	     -3.96677835	      2.86070576	     -1.40699769	     -0.01117970	      0.44605681	     12.19162488	      7.48570279	     -1.28135816	    -12.86271333	     -1.84623784	     -7.48135084	      3.14121571	     27.12155120	     -3.00989573	      3.55232469	    -61.93265022	    -17.05869303	    -13.71111125	     21.50880594	      8.39214641	      2.11897010	     -1.74158198
      4.40000000	     -8.78614725	     -3.57616610	      2.57412215	     -1.40143607	     -0.01062291	      0.44688784	     11.66037787	      7.20121106	     -0.86529229	    -12.58508641	     -1.66272149	     -7.43365803	      3.10847636	     27.63298957	     -2.65332739	      3.21428766	    -61.22083015	    -16.21631374	    -13.26291320	     21.61209363	      8.38414453	      1.75116719	     -1.24828611
      4.40500000	     -8.81536140	     -3.21221608	      2.28595164	     -1.39590257	     -0.01014983	      0.44768492	     11.13769949	      6.93686533	     -0.48697370	    -12.32499039	     -1.47853586	     -7.39632050	      3.07093014	     28.12190319	     -2.33110345	      2.87566701	    -60.43859037	    -15.41883753	    -12.91439489	     21.65479487	      8.36990720	      1.42100943	     -0.78082235
      4.41000000	     -8.82057555	     -2.89863642	      1.97542216	     -1.39031600	     -0.00973354	      0.44845876	     10.56318165	      6.72227485	     -0.06788536	    -12.01323175	     -1.29961412	     -7.33887593	      3.00560670	     28.57373958	     -2.08288476	      2.52726301	    -59.61097344	    -14.67858707	    -12.57547627	     21.60641114	      8.34285307	      1.15784913	     -0.28837029
      4.41500000	     -8.83041876	     -2.60139649	      1.67705106	     -1.38475208	     -0.00941173	      0.44916992	     10.01361826	      6.51305864	      0.29294178	    -11.72747242	     -1.12201183	     -7.30960340	      2.93401714	     29.01293175	     -1.84568412	      2.19388413	    -58.71238530	    -14.00878337	    -12.38890884	     21.50014268	      8.31872797	      0.91679744	      0.14663456
      4.42000000	     -8.82711460	     -2.33915982	      1.37513099	     -1.37914696	     -0.00914942	      0.44989360	      9.43746643	      6.33725734	      0.67235182	    -11.41896823	     -0.94109718	     -7.27401699	      2.84673835	     29.42212875	     -1.66212001	      1.85984357	    -57.75682070	    -13.42346608	    -12.26942449	     21.32180907	      8.29291948	      0.71052461	      0.58301233
      4.42500000	     -8.80192093	     -2.10680408	      1.05562720	     -1.37352772	     -0.00893407	      0.45057790	      8.83293480	      6.18618957	      1.06974063	    -11.09940262	     -0.77127543	     -7.23674013	      2.73118456	     29.79014056	     -1.52633684	      1.50951443	    -56.75054702	    -12.89418544	    -12.21952478	     21.04153053	      8.24619402	      0.55404819	      1.02889963
      4.43000000	     -8.76740217	     -1.89672275	      0.73780161	     -1.36791187	     -0.00877841	      0.45126086	      8.21781208	      6.05255356	      1.45939137	    -10.77341462	     -0.60576144	     -7.20719439	      2.59604767	     30.13196195	     -1.42251898	      1.16356764	    -55.69276013	    -12.41764187	    -12.24211481	     20.65826498	      8.18880572	      0.41639016	      1.45580564
      4.43500000	     -8.73363020	     -1.70176038	      0.43058068	     -1.36229945	     -0.00868119	      0.45190564	      7.60421215	      5.92389851	      1.83390688	    -10.44486164	     -0.43966939	     -7.17811450	      2.45885143	     30.45758142	     -1.33653449	      0.82677834	    -54.57973158	    -11.99135350	    -12.31622122	     20.19412824	      8.13329866	      0.29861548	      1.85422237
      4.44000000	     -8.73902221	     -1.51726417	      0.17745494	     -1.35668285	     -0.00871119	      0.45249786	      7.02952868	      5.79141286	      2.17890150	    -10.10898198	     -0.23087404	     -7.15448880	      2.36206615	     30.81384166	     -1.23777529	      0.55765365	    -53.41455180	    -11.61139516	    -12.43321539	     19.75276143	      8.12082836	      0.17921211	      2.17279951
      4.44500000	     -8.64783843	     -1.35814615	     -0.18022188	     -1.35110218	     -0.00863299	      0.45320060	      6.36534112	      5.69567450	      2.53474840	     -9.78632394	     -0.09806788	     -7.09994428	      2.19252288	     31.03234415	     -1.24888727	      0.13377824	    -52.19866809	    -11.23461243	    -12.56461884	     19.00432769	      7.99690076	      0.11127328	      2.61239901
      4.45000000	     -8.63843505	     -1.17613584	     -0.44860415	     -1.34550283	     -0.00870208	      0.45378064	      5.79290838	      5.55276262	      2.82043582	     -9.47245964	      0.08383832	     -7.05604077	      2.08576363	     31.31755689	     -1.18415252	     -0.17984972	    -50.90987441	    -10.87303279	    -12.67074943	     18.35215312	      7.96525845	      0.00618365	      2.92640371
      4.45500000	     -8.61128356	     -1.01245758	     -0.73509280	     -1.33995680	     -0.00877060	      0.45434453	      5.21469633	      5.42079722	      3.11771069	     -9.17555593	      0.24925166	     -6.96324902	      1.98614707	     31.55804174	     -1.15061018	     -0.49959852	    -49.56324667	    -10.53656655	    -12.77142381	     17.61086763	      7.90631917	     -0.07162175	      3.23783553
      4.46000000	     -8.60567506	     -0.84506643	     -1.00312471	     -1.33442101	     -0.00890322	      0.45491447	      4.66988755	      5.27970796	      3.37113963	     -8.89198428	      0.42664280	     -6.85631784	      1.90798025	     31.79687304	     -1.11633735	     -0.80852513	    -48.15482048	    -10.21460085	    -12.84001793	     16.89187347	      7.86592249	     -0.16502086	      3.51557911
      4.46500000	     -8.61376305	     -0.67536373	     -1.25858784	     -1.32890485	     -0.00908745	      0.45544440	      4.15458882	      5.12836995	      3.59445091	     -8.63054372	      0.61892982	     -6.73568658	      1.84974768	     32.02314347	     -1.07911000	     -1.10759147	    -46.68229819	     -9.90772794	    -12.86652778	     16.20540779	      7.83687502	     -0.25868625	      3.76639399
      4.47000000	     -8.62842989	     -0.50367714	     -1.51112863	     -1.32340276	     -0.00931155	      0.45593806	      3.66202764	      4.96788974	      3.79613959	     -8.39402188	      0.82302338	     -6.59346344	      1.80909115	     32.22712625	     -1.04209771	     -1.39919148	    -45.15001176	     -9.60886056	    -12.83140825	     15.54969792	      7.81149461	     -0.34904072	      3.99806162
      4.47500000	     -8.65936623	     -0.33519079	     -1.75418376	     -1.31790996	     -0.00959247	      0.45640213	      3.20382794	      4.80640535	      3.96796358	     -8.18481249	      1.03631796	     -6.44111349	      1.78911121	     32.42016145	     -1.00821583	     -1.67269157	    -43.55954914	     -9.31810889	    -12.72700061	     14.97618055	      7.79852836	     -0.43766036	      4.20333049
